<?xml version="1.0" encoding="UTF-8" standalone="no"?>
<!DOCTYPE svg PUBLIC "-//W3C//DTD SVG 1.1//EN" "http://www.w3.org/Graphics/SVG/1.1/DTD/svg11.dtd">
<svg width="100%" height="100%" viewBox="0 0 1667 1667" version="1.1" xmlns="http://www.w3.org/2000/svg" xmlns:xlink="http://www.w3.org/1999/xlink" xml:space="preserve" xmlns:serif="http://www.serif.com/" style="fill-rule:evenodd;clip-rule:evenodd;stroke-linejoin:round;stroke-miterlimit:2;">
    <g transform="matrix(1,0,0,1,3.83333,49.8333)">
        <g transform="matrix(0.866066,0,0,0.866066,-1730.16,-2613.65)">
            <path d="M2068.8,3866.71L2097.07,3881.51C2089.38,3879.88 2082.03,3878.36 2075,3877C2184.63,3979.59 2320.34,4114.02 2588.91,4040.42C2650.36,4023.58 2724.26,4022.32 2796.01,4025.43C2801.79,4122.83 2836.3,4211.36 2904,4339.79C3004.08,4529.62 2949.29,4706.08 2929.15,4810L2943.86,4794.28L2935.63,4810.75C2454.45,4800.23 2067,4406.26 2067,3922.5C2067,3903.77 2067.58,3885.17 2068.8,3866.71Z" style="fill:rgb(255,205,0);"/>
        </g>
        <g transform="matrix(0.866066,0,0,0.866066,-1730.16,-2613.65)">
            <path d="M2971.9,3034.21C3454.5,3042.92 3843.61,3437.21 3843.99,3921.76L3808.6,3903.23C3816.29,3904.86 3823.68,3906.39 3830.74,3907.75C3721.1,3805.16 3585.39,3670.73 3316.83,3744.33C3250,3762.64 3168.47,3762.53 3090.98,3758.42C3076.28,3684.16 3043.76,3608.64 2991.34,3509.21C2894.76,3326.01 2942.42,3155.25 2963.94,3050.13L2971.9,3034.21Z" style="fill:rgb(255,101,35);"/>
        </g>
        <g transform="matrix(0.866066,0,0,0.866066,-1730.16,-2613.65)">
            <path d="M2971.9,3034.21L2963.94,3050.13L2966.2,3039C2863.61,3148.63 2729.18,3284.34 2802.78,3552.91C2818.69,3610.97 2820.69,3680.14 2818.24,3748.11C2736.07,3760.18 2655.3,3793.82 2545.21,3851.86C2368.21,3945.16 2202.84,3903.84 2097.07,3881.51L2068.8,3866.71C2097.55,3402.29 2483.86,3034 2955.5,3034L2971.9,3034.21Z" style="fill:rgb(0,185,200);"/>
        </g>
        <g transform="matrix(-0.866066,1.06063e-16,-1.06063e-16,-0.866066,3406.48,4139.94)">
            <path d="M2987.14,3003.72C2887.03,3110.74 2768.3,3246.02 2838.43,3501.91C2859.34,3578.2 2856.23,3673.67 2850.57,3760.38C2765.94,3771.52 2683.71,3805.41 2570.48,3865.1C2393.53,3958.38 2228.21,3917.12 2122.4,3894.77L2087.01,3876.24L2087,3875.5C2087,3385.12 2485.12,2987 2975.5,2987L2995.37,2987.25L2987.14,3003.72Z" style="fill:rgb(93,62,110);"/>
        </g>
    </g>
</svg>
